<mxfile host="65bd71144e">
    <diagram id="CYYaLjD-E2wavenpG5ps" name="Page-1">
        <mxGraphModel dx="1108" dy="1466" grid="1" gridSize="10" guides="1" tooltips="1" connect="1" arrows="1" fold="1" page="1" pageScale="1" pageWidth="850" pageHeight="1100" math="0" shadow="0">
            <root>
                <mxCell id="0"/>
                <mxCell id="1" parent="0"/>
                <mxCell id="54" value="" style="rounded=0;whiteSpace=wrap;html=1;" parent="1" vertex="1">
                    <mxGeometry x="-80" y="-390" width="530" height="560" as="geometry"/>
                </mxCell>
                <mxCell id="3" value="" style="shape=waypoint;sketch=0;fillStyle=solid;size=6;pointerEvents=1;points=[];fillColor=none;resizable=0;rotatable=0;perimeter=centerPerimeter;snapToPoint=1;strokeWidth=7;" parent="1" vertex="1">
                    <mxGeometry x="20" y="190" width="20" height="20" as="geometry"/>
                </mxCell>
                <mxCell id="4" value="" style="shape=waypoint;sketch=0;fillStyle=solid;size=6;pointerEvents=1;points=[];fillColor=none;resizable=0;rotatable=0;perimeter=centerPerimeter;snapToPoint=1;strokeWidth=7;" parent="1" vertex="1">
                    <mxGeometry x="-60" y="190" width="20" height="20" as="geometry"/>
                </mxCell>
                <mxCell id="8" value="" style="endArrow=classic;startArrow=classic;html=1;exitX=1.091;exitY=0.611;exitDx=0;exitDy=0;exitPerimeter=0;entryX=0.331;entryY=0.611;entryDx=0;entryDy=0;entryPerimeter=0;fillColor=#d5e8d4;strokeColor=#82b366;" parent="1" source="4" target="3" edge="1">
                    <mxGeometry width="50" height="50" relative="1" as="geometry">
                        <mxPoint x="160" y="90" as="sourcePoint"/>
                        <mxPoint x="210" y="40" as="targetPoint"/>
                    </mxGeometry>
                </mxCell>
                <mxCell id="15" value="CR1" style="text;html=1;strokeColor=none;fillColor=none;align=center;verticalAlign=middle;whiteSpace=wrap;rounded=0;strokeWidth=0;" parent="1" vertex="1">
                    <mxGeometry x="-80" y="220" width="60" height="30" as="geometry"/>
                </mxCell>
                <mxCell id="16" value="CR2" style="text;html=1;strokeColor=none;fillColor=none;align=center;verticalAlign=middle;whiteSpace=wrap;rounded=0;strokeWidth=0;" parent="1" vertex="1">
                    <mxGeometry y="220" width="60" height="30" as="geometry"/>
                </mxCell>
                <mxCell id="18" value="t0" style="text;html=1;strokeColor=none;fillColor=none;align=center;verticalAlign=middle;whiteSpace=wrap;rounded=0;" parent="1" vertex="1">
                    <mxGeometry x="-160" y="180" width="60" height="30" as="geometry"/>
                </mxCell>
                <mxCell id="20" value="" style="shape=waypoint;sketch=0;fillStyle=solid;size=6;pointerEvents=1;points=[];fillColor=none;resizable=0;rotatable=0;perimeter=centerPerimeter;snapToPoint=1;strokeWidth=7;" parent="1" vertex="1">
                    <mxGeometry x="-60" y="-130" width="20" height="20" as="geometry"/>
                </mxCell>
                <mxCell id="22" value="" style="endArrow=classic;startArrow=classic;html=1;exitX=1.091;exitY=0.611;exitDx=0;exitDy=0;exitPerimeter=0;entryX=0.331;entryY=0.611;entryDx=0;entryDy=0;entryPerimeter=0;fillColor=#d5e8d4;strokeColor=#82b366;" parent="1" source="20" target="19" edge="1">
                    <mxGeometry width="50" height="50" relative="1" as="geometry">
                        <mxPoint x="160" y="-230" as="sourcePoint"/>
                        <mxPoint x="210" y="-280" as="targetPoint"/>
                    </mxGeometry>
                </mxCell>
                <mxCell id="32" value="" style="endArrow=classic;html=1;dashed=1;" parent="1" edge="1">
                    <mxGeometry width="50" height="50" relative="1" as="geometry">
                        <mxPoint x="29.5" y="165" as="sourcePoint"/>
                        <mxPoint x="30.5" y="35" as="targetPoint"/>
                    </mxGeometry>
                </mxCell>
                <mxCell id="33" value="" style="endArrow=classic;html=1;dashed=1;" parent="1" edge="1">
                    <mxGeometry width="50" height="50" relative="1" as="geometry">
                        <mxPoint x="-50.5" y="180" as="sourcePoint"/>
                        <mxPoint x="-50.5" y="130" as="targetPoint"/>
                    </mxGeometry>
                </mxCell>
                <mxCell id="35" value="t1 &amp;gt; t0" style="text;html=1;strokeColor=none;fillColor=none;align=center;verticalAlign=middle;whiteSpace=wrap;rounded=0;" parent="1" vertex="1">
                    <mxGeometry x="-160" y="85" width="60" height="30" as="geometry"/>
                </mxCell>
                <mxCell id="36" value="" style="shape=waypoint;sketch=0;fillStyle=solid;size=6;pointerEvents=1;points=[];fillColor=none;resizable=0;rotatable=0;perimeter=centerPerimeter;snapToPoint=1;strokeWidth=7;" parent="1" vertex="1">
                    <mxGeometry x="20" y="-450" width="20" height="20" as="geometry"/>
                </mxCell>
                <mxCell id="37" value="" style="shape=waypoint;sketch=0;fillStyle=solid;size=6;pointerEvents=1;points=[];fillColor=none;resizable=0;rotatable=0;perimeter=centerPerimeter;snapToPoint=1;strokeWidth=7;" parent="1" vertex="1">
                    <mxGeometry x="-60" y="-450" width="20" height="20" as="geometry"/>
                </mxCell>
                <mxCell id="39" value="" style="endArrow=classic;startArrow=classic;html=1;exitX=1.091;exitY=0.611;exitDx=0;exitDy=0;exitPerimeter=0;entryX=0.331;entryY=0.611;entryDx=0;entryDy=0;entryPerimeter=0;fillColor=#d5e8d4;strokeColor=#82b366;" parent="1" source="37" target="36" edge="1">
                    <mxGeometry width="50" height="50" relative="1" as="geometry">
                        <mxPoint x="160" y="-550" as="sourcePoint"/>
                        <mxPoint x="210" y="-600" as="targetPoint"/>
                    </mxGeometry>
                </mxCell>
                <mxCell id="51" value="" style="endArrow=classic;html=1;dashed=1;" parent="1" edge="1">
                    <mxGeometry width="50" height="50" relative="1" as="geometry">
                        <mxPoint x="-50.5" y="53" as="sourcePoint"/>
                        <mxPoint x="-50.5" y="-87" as="targetPoint"/>
                    </mxGeometry>
                </mxCell>
                <mxCell id="53" value="t5 &amp;gt; t4" style="text;html=1;strokeColor=none;fillColor=none;align=center;verticalAlign=middle;whiteSpace=wrap;rounded=0;" parent="1" vertex="1">
                    <mxGeometry x="-160" y="-455" width="60" height="30" as="geometry"/>
                </mxCell>
                <mxCell id="75" value="CR1" style="text;html=1;strokeColor=none;fillColor=none;align=center;verticalAlign=middle;whiteSpace=wrap;rounded=0;strokeWidth=0;" parent="1" vertex="1">
                    <mxGeometry x="50" y="-420" width="60" height="30" as="geometry"/>
                </mxCell>
                <mxCell id="118" value="" style="shape=waypoint;sketch=0;fillStyle=solid;size=6;pointerEvents=1;points=[];fillColor=none;resizable=0;rotatable=0;perimeter=centerPerimeter;snapToPoint=1;strokeWidth=7;" parent="1" vertex="1">
                    <mxGeometry x="-60" y="90" width="20" height="20" as="geometry"/>
                </mxCell>
                <mxCell id="119" value="" style="endArrow=classic;startArrow=classic;html=1;exitX=0.491;exitY=0.791;exitDx=0;exitDy=0;exitPerimeter=0;fillColor=#d5e8d4;strokeColor=#82b366;" parent="1" source="118" edge="1">
                    <mxGeometry width="50" height="50" relative="1" as="geometry">
                        <mxPoint x="-40" y="210" as="sourcePoint"/>
                        <mxPoint x="30" y="200" as="targetPoint"/>
                    </mxGeometry>
                </mxCell>
                <mxCell id="120" value="" style="shape=waypoint;sketch=0;fillStyle=solid;size=6;pointerEvents=1;points=[];fillColor=none;resizable=0;rotatable=0;perimeter=centerPerimeter;snapToPoint=1;strokeWidth=7;" parent="1" vertex="1">
                    <mxGeometry x="20" width="20" height="20" as="geometry"/>
                </mxCell>
                <mxCell id="19" value="" style="shape=waypoint;sketch=0;fillStyle=solid;size=6;pointerEvents=1;points=[];fillColor=none;resizable=0;rotatable=0;perimeter=centerPerimeter;snapToPoint=1;strokeWidth=7;" parent="1" vertex="1">
                    <mxGeometry x="20" y="-220" width="20" height="20" as="geometry"/>
                </mxCell>
                <mxCell id="123" value="" style="endArrow=classic;html=1;dashed=1;" parent="1" edge="1">
                    <mxGeometry width="50" height="50" relative="1" as="geometry">
                        <mxPoint x="29.5" y="-30" as="sourcePoint"/>
                        <mxPoint x="30.5" y="-160" as="targetPoint"/>
                    </mxGeometry>
                </mxCell>
                <mxCell id="124" value="" style="endArrow=classic;startArrow=classic;html=1;fillColor=#d5e8d4;strokeColor=#82b366;entryX=0.391;entryY=0.611;entryDx=0;entryDy=0;entryPerimeter=0;" parent="1" target="120" edge="1">
                    <mxGeometry width="50" height="50" relative="1" as="geometry">
                        <mxPoint x="-50" y="100" as="sourcePoint"/>
                        <mxPoint x="40" y="210" as="targetPoint"/>
                    </mxGeometry>
                </mxCell>
                <mxCell id="125" value="" style="endArrow=classic;startArrow=classic;html=1;fillColor=#d5e8d4;strokeColor=#82b366;entryX=0.431;entryY=0.691;entryDx=0;entryDy=0;entryPerimeter=0;exitX=0.751;exitY=0.971;exitDx=0;exitDy=0;exitPerimeter=0;" parent="1" source="120" target="20" edge="1">
                    <mxGeometry width="50" height="50" relative="1" as="geometry">
                        <mxPoint x="-40" y="110" as="sourcePoint"/>
                        <mxPoint x="40" y="20" as="targetPoint"/>
                    </mxGeometry>
                </mxCell>
                <mxCell id="126" value="" style="shape=waypoint;sketch=0;fillStyle=solid;size=6;pointerEvents=1;points=[];fillColor=none;resizable=0;rotatable=0;perimeter=centerPerimeter;snapToPoint=1;strokeWidth=7;" parent="1" vertex="1">
                    <mxGeometry x="-60" y="-310" width="20" height="20" as="geometry"/>
                </mxCell>
                <mxCell id="127" value="" style="endArrow=classic;startArrow=classic;html=1;fillColor=#d5e8d4;strokeColor=#82b366;" parent="1" source="19" target="126" edge="1">
                    <mxGeometry width="50" height="50" relative="1" as="geometry">
                        <mxPoint x="40" y="20" as="sourcePoint"/>
                        <mxPoint x="-40" y="-110" as="targetPoint"/>
                    </mxGeometry>
                </mxCell>
                <mxCell id="128" value="" style="endArrow=classic;startArrow=classic;html=1;fillColor=#d5e8d4;strokeColor=#82b366;entryX=0.511;entryY=0.731;entryDx=0;entryDy=0;entryPerimeter=0;" parent="1" source="126" target="36" edge="1">
                    <mxGeometry width="50" height="50" relative="1" as="geometry">
                        <mxPoint x="40" y="-200" as="sourcePoint"/>
                        <mxPoint x="-40" y="-290" as="targetPoint"/>
                    </mxGeometry>
                </mxCell>
                <mxCell id="129" value="" style="endArrow=classic;html=1;dashed=1;" parent="1" edge="1">
                    <mxGeometry width="50" height="50" relative="1" as="geometry">
                        <mxPoint x="-50.5" y="-145" as="sourcePoint"/>
                        <mxPoint x="-49.5" y="-275" as="targetPoint"/>
                    </mxGeometry>
                </mxCell>
                <mxCell id="130" value="" style="endArrow=classic;html=1;dashed=1;" parent="1" edge="1">
                    <mxGeometry width="50" height="50" relative="1" as="geometry">
                        <mxPoint x="-50.5" y="-351" as="sourcePoint"/>
                        <mxPoint x="-50.5" y="-401" as="targetPoint"/>
                    </mxGeometry>
                </mxCell>
                <mxCell id="152" value="t2 &amp;gt; t1" style="text;html=1;strokeColor=none;fillColor=none;align=center;verticalAlign=middle;whiteSpace=wrap;rounded=0;" parent="1" vertex="1">
                    <mxGeometry x="-160" y="-5" width="60" height="30" as="geometry"/>
                </mxCell>
                <mxCell id="153" value="t3 &amp;gt; t2" style="text;html=1;strokeColor=none;fillColor=none;align=center;verticalAlign=middle;whiteSpace=wrap;rounded=0;" parent="1" vertex="1">
                    <mxGeometry x="-160" y="-140" width="60" height="30" as="geometry"/>
                </mxCell>
                <mxCell id="154" value="t4 &amp;gt; t3" style="text;html=1;strokeColor=none;fillColor=none;align=center;verticalAlign=middle;whiteSpace=wrap;rounded=0;" parent="1" vertex="1">
                    <mxGeometry x="-160" y="-315" width="60" height="30" as="geometry"/>
                </mxCell>
                <mxCell id="162" value="d" style="text;html=1;strokeColor=none;fillColor=none;align=center;verticalAlign=middle;whiteSpace=wrap;rounded=0;" parent="1" vertex="1">
                    <mxGeometry x="-40" y="200" width="60" height="30" as="geometry"/>
                </mxCell>
                <mxCell id="164" value="d" style="text;html=1;strokeColor=none;fillColor=none;align=center;verticalAlign=middle;whiteSpace=wrap;rounded=0;" parent="1" vertex="1">
                    <mxGeometry x="-40" y="-440" width="60" height="30" as="geometry"/>
                </mxCell>
                <mxCell id="166" value="2*s" style="text;html=1;strokeColor=none;fillColor=none;align=center;verticalAlign=middle;whiteSpace=wrap;rounded=0;" parent="1" vertex="1">
                    <mxGeometry x="-10" y="80" width="60" height="30" as="geometry"/>
                </mxCell>
                <mxCell id="167" value="2*s" style="text;html=1;strokeColor=none;fillColor=none;align=center;verticalAlign=middle;whiteSpace=wrap;rounded=0;" parent="1" vertex="1">
                    <mxGeometry x="-70" y="-20" width="60" height="30" as="geometry"/>
                </mxCell>
                <mxCell id="168" value="s" style="text;html=1;strokeColor=none;fillColor=none;align=center;verticalAlign=middle;whiteSpace=wrap;rounded=0;" parent="1" vertex="1">
                    <mxGeometry x="-70" y="140" width="60" height="30" as="geometry"/>
                </mxCell>
                <mxCell id="170" value="d" style="text;html=1;strokeColor=none;fillColor=none;align=center;verticalAlign=middle;whiteSpace=wrap;rounded=0;" vertex="1" parent="1">
                    <mxGeometry x="40" y="200" width="60" height="30" as="geometry"/>
                </mxCell>
                <mxCell id="171" value="" style="endArrow=classic;startArrow=classic;html=1;entryX=0.692;entryY=0.498;entryDx=0;entryDy=0;entryPerimeter=0;fillColor=#d5e8d4;strokeColor=#82b366;" edge="1" parent="1" source="3">
                    <mxGeometry width="50" height="50" relative="1" as="geometry">
                        <mxPoint x="-40" y="210" as="sourcePoint"/>
                        <mxPoint x="110" y="200" as="targetPoint"/>
                    </mxGeometry>
                </mxCell>
                <mxCell id="172" value="" style="shape=waypoint;sketch=0;fillStyle=solid;size=6;pointerEvents=1;points=[];fillColor=none;resizable=0;rotatable=0;perimeter=centerPerimeter;snapToPoint=1;strokeWidth=0;" vertex="1" parent="1">
                    <mxGeometry x="100" y="190" width="20" height="20" as="geometry"/>
                </mxCell>
                <mxCell id="173" value="" style="shape=waypoint;sketch=0;fillStyle=solid;size=6;pointerEvents=1;points=[];fillColor=none;resizable=0;rotatable=0;perimeter=centerPerimeter;snapToPoint=1;strokeWidth=0;" vertex="1" parent="1">
                    <mxGeometry x="120" y="190" width="20" height="20" as="geometry"/>
                </mxCell>
                <mxCell id="174" value="" style="shape=waypoint;sketch=0;fillStyle=solid;size=6;pointerEvents=1;points=[];fillColor=none;resizable=0;rotatable=0;perimeter=centerPerimeter;snapToPoint=1;strokeWidth=0;" vertex="1" parent="1">
                    <mxGeometry x="110" y="190" width="20" height="20" as="geometry"/>
                </mxCell>
                <mxCell id="177" value="" style="shape=waypoint;sketch=0;fillStyle=solid;size=6;pointerEvents=1;points=[];fillColor=none;resizable=0;rotatable=0;perimeter=centerPerimeter;snapToPoint=1;strokeWidth=7;" vertex="1" parent="1">
                    <mxGeometry x="190" y="190" width="20" height="20" as="geometry"/>
                </mxCell>
                <mxCell id="175" value="" style="endArrow=classic;startArrow=classic;html=1;fillColor=#d5e8d4;strokeColor=#82b366;exitX=0.688;exitY=0.498;exitDx=0;exitDy=0;exitPerimeter=0;" edge="1" parent="1" source="173" target="177">
                    <mxGeometry width="50" height="50" relative="1" as="geometry">
                        <mxPoint x="130" y="260" as="sourcePoint"/>
                        <mxPoint x="210" y="260" as="targetPoint"/>
                    </mxGeometry>
                </mxCell>
                <mxCell id="178" value="d" style="text;html=1;strokeColor=none;fillColor=none;align=center;verticalAlign=middle;whiteSpace=wrap;rounded=0;" vertex="1" parent="1">
                    <mxGeometry x="130" y="200" width="60" height="30" as="geometry"/>
                </mxCell>
                <mxCell id="179" value="CRn-1" style="text;html=1;strokeColor=none;fillColor=none;align=center;verticalAlign=middle;whiteSpace=wrap;rounded=0;strokeWidth=0;" vertex="1" parent="1">
                    <mxGeometry x="170" y="220" width="60" height="30" as="geometry"/>
                </mxCell>
                <mxCell id="180" value="CRn" style="text;html=1;strokeColor=none;fillColor=none;align=center;verticalAlign=middle;whiteSpace=wrap;rounded=0;strokeWidth=0;" vertex="1" parent="1">
                    <mxGeometry x="240" y="220" width="60" height="30" as="geometry"/>
                </mxCell>
                <mxCell id="181" value="" style="shape=waypoint;sketch=0;fillStyle=solid;size=6;pointerEvents=1;points=[];fillColor=none;resizable=0;rotatable=0;perimeter=centerPerimeter;snapToPoint=1;strokeWidth=7;" vertex="1" parent="1">
                    <mxGeometry x="260" y="190" width="20" height="20" as="geometry"/>
                </mxCell>
                <mxCell id="182" value="" style="endArrow=classic;startArrow=classic;html=1;fillColor=#d5e8d4;strokeColor=#82b366;" edge="1" parent="1" target="181">
                    <mxGeometry width="50" height="50" relative="1" as="geometry">
                        <mxPoint x="200" y="200" as="sourcePoint"/>
                        <mxPoint x="120" y="210" as="targetPoint"/>
                    </mxGeometry>
                </mxCell>
                <mxCell id="183" value="d" style="text;html=1;strokeColor=none;fillColor=none;align=center;verticalAlign=middle;whiteSpace=wrap;rounded=0;" vertex="1" parent="1">
                    <mxGeometry x="210" y="200" width="60" height="30" as="geometry"/>
                </mxCell>
                <mxCell id="184" value="" style="shape=waypoint;sketch=0;fillStyle=solid;size=6;pointerEvents=1;points=[];fillColor=none;resizable=0;rotatable=0;perimeter=centerPerimeter;snapToPoint=1;strokeWidth=7;" vertex="1" parent="1">
                    <mxGeometry x="190" y="90" width="20" height="20" as="geometry"/>
                </mxCell>
                <mxCell id="185" value="" style="shape=waypoint;sketch=0;fillStyle=solid;size=6;pointerEvents=1;points=[];fillColor=none;resizable=0;rotatable=0;perimeter=centerPerimeter;snapToPoint=1;strokeWidth=7;" vertex="1" parent="1">
                    <mxGeometry x="260" width="20" height="20" as="geometry"/>
                </mxCell>
                <mxCell id="186" value="" style="shape=waypoint;sketch=0;fillStyle=solid;size=6;pointerEvents=1;points=[];fillColor=none;resizable=0;rotatable=0;perimeter=centerPerimeter;snapToPoint=1;strokeWidth=7;" vertex="1" parent="1">
                    <mxGeometry x="190" y="-130" width="20" height="20" as="geometry"/>
                </mxCell>
                <mxCell id="187" value="" style="shape=waypoint;sketch=0;fillStyle=solid;size=6;pointerEvents=1;points=[];fillColor=none;resizable=0;rotatable=0;perimeter=centerPerimeter;snapToPoint=1;strokeWidth=7;" vertex="1" parent="1">
                    <mxGeometry x="260" y="-220" width="20" height="20" as="geometry"/>
                </mxCell>
                <mxCell id="188" value="" style="shape=waypoint;sketch=0;fillStyle=solid;size=6;pointerEvents=1;points=[];fillColor=none;resizable=0;rotatable=0;perimeter=centerPerimeter;snapToPoint=1;strokeWidth=7;" vertex="1" parent="1">
                    <mxGeometry x="190" y="-310" width="20" height="20" as="geometry"/>
                </mxCell>
                <mxCell id="189" value="" style="shape=waypoint;sketch=0;fillStyle=solid;size=6;pointerEvents=1;points=[];fillColor=none;resizable=0;rotatable=0;perimeter=centerPerimeter;snapToPoint=1;strokeWidth=7;" vertex="1" parent="1">
                    <mxGeometry x="190" y="-450" width="20" height="20" as="geometry"/>
                </mxCell>
                <mxCell id="190" value="" style="shape=waypoint;sketch=0;fillStyle=solid;size=6;pointerEvents=1;points=[];fillColor=none;resizable=0;rotatable=0;perimeter=centerPerimeter;snapToPoint=1;strokeWidth=7;" vertex="1" parent="1">
                    <mxGeometry x="260" y="-450" width="20" height="20" as="geometry"/>
                </mxCell>
                <mxCell id="191" value="" style="endArrow=classic;startArrow=classic;html=1;fillColor=#d5e8d4;strokeColor=#82b366;entryX=0.639;entryY=0.476;entryDx=0;entryDy=0;entryPerimeter=0;" edge="1" parent="1" source="184" target="181">
                    <mxGeometry width="50" height="50" relative="1" as="geometry">
                        <mxPoint x="-40" y="110" as="sourcePoint"/>
                        <mxPoint x="40" y="210" as="targetPoint"/>
                    </mxGeometry>
                </mxCell>
                <mxCell id="192" value="" style="endArrow=classic;startArrow=classic;html=1;fillColor=#d5e8d4;strokeColor=#82b366;entryX=0.471;entryY=0.631;entryDx=0;entryDy=0;entryPerimeter=0;" edge="1" parent="1" source="185" target="184">
                    <mxGeometry width="50" height="50" relative="1" as="geometry">
                        <mxPoint x="210" y="110" as="sourcePoint"/>
                        <mxPoint x="280" y="210" as="targetPoint"/>
                    </mxGeometry>
                </mxCell>
                <mxCell id="193" value="" style="endArrow=classic;startArrow=classic;html=1;fillColor=#d5e8d4;strokeColor=#82b366;entryX=0.594;entryY=0.648;entryDx=0;entryDy=0;entryPerimeter=0;exitX=0.652;exitY=0.581;exitDx=0;exitDy=0;exitPerimeter=0;" edge="1" parent="1" source="186" target="185">
                    <mxGeometry width="50" height="50" relative="1" as="geometry">
                        <mxPoint x="280" y="20" as="sourcePoint"/>
                        <mxPoint x="210" y="110" as="targetPoint"/>
                    </mxGeometry>
                </mxCell>
                <mxCell id="194" value="" style="endArrow=classic;startArrow=classic;html=1;fillColor=#d5e8d4;strokeColor=#82b366;" edge="1" parent="1" source="187" target="186">
                    <mxGeometry width="50" height="50" relative="1" as="geometry">
                        <mxPoint x="210" y="-110" as="sourcePoint"/>
                        <mxPoint x="280" y="20" as="targetPoint"/>
                    </mxGeometry>
                </mxCell>
                <mxCell id="195" value="" style="endArrow=classic;startArrow=classic;html=1;fillColor=#d5e8d4;strokeColor=#82b366;exitX=0.607;exitY=0.57;exitDx=0;exitDy=0;exitPerimeter=0;" edge="1" parent="1" source="188" target="187">
                    <mxGeometry width="50" height="50" relative="1" as="geometry">
                        <mxPoint x="280" y="-200" as="sourcePoint"/>
                        <mxPoint x="210" y="-110" as="targetPoint"/>
                    </mxGeometry>
                </mxCell>
                <mxCell id="196" value="" style="endArrow=classic;startArrow=classic;html=1;fillColor=#d5e8d4;strokeColor=#82b366;" edge="1" parent="1" source="190" target="188">
                    <mxGeometry width="50" height="50" relative="1" as="geometry">
                        <mxPoint x="210" y="-290" as="sourcePoint"/>
                        <mxPoint x="280" y="-200" as="targetPoint"/>
                    </mxGeometry>
                </mxCell>
                <mxCell id="197" value="" style="endArrow=classic;startArrow=classic;html=1;fillColor=#d5e8d4;strokeColor=#82b366;exitX=0.639;exitY=0.461;exitDx=0;exitDy=0;exitPerimeter=0;entryX=0.652;entryY=0.529;entryDx=0;entryDy=0;entryPerimeter=0;" edge="1" parent="1" source="190" target="189">
                    <mxGeometry width="50" height="50" relative="1" as="geometry">
                        <mxPoint x="280" y="-430" as="sourcePoint"/>
                        <mxPoint x="210" y="-290" as="targetPoint"/>
                    </mxGeometry>
                </mxCell>
                <mxCell id="204" value="" style="shape=waypoint;sketch=0;fillStyle=solid;size=6;pointerEvents=1;points=[];fillColor=none;resizable=0;rotatable=0;perimeter=centerPerimeter;snapToPoint=1;strokeWidth=0;" vertex="1" parent="1">
                    <mxGeometry x="100" y="95" width="20" height="20" as="geometry"/>
                </mxCell>
                <mxCell id="206" value="" style="shape=waypoint;sketch=0;fillStyle=solid;size=6;pointerEvents=1;points=[];fillColor=none;resizable=0;rotatable=0;perimeter=centerPerimeter;snapToPoint=1;strokeWidth=0;" vertex="1" parent="1">
                    <mxGeometry x="110" y="95" width="20" height="20" as="geometry"/>
                </mxCell>
                <mxCell id="208" value="" style="shape=waypoint;sketch=0;fillStyle=solid;size=6;pointerEvents=1;points=[];fillColor=none;resizable=0;rotatable=0;perimeter=centerPerimeter;snapToPoint=1;strokeWidth=0;" vertex="1" parent="1">
                    <mxGeometry x="120" width="20" height="20" as="geometry"/>
                </mxCell>
                <mxCell id="209" value="" style="shape=waypoint;sketch=0;fillStyle=solid;size=6;pointerEvents=1;points=[];fillColor=none;resizable=0;rotatable=0;perimeter=centerPerimeter;snapToPoint=1;strokeWidth=0;" vertex="1" parent="1">
                    <mxGeometry x="110" width="20" height="20" as="geometry"/>
                </mxCell>
                <mxCell id="210" value="" style="shape=waypoint;sketch=0;fillStyle=solid;size=6;pointerEvents=1;points=[];fillColor=none;resizable=0;rotatable=0;perimeter=centerPerimeter;snapToPoint=1;strokeWidth=0;" vertex="1" parent="1">
                    <mxGeometry x="100" y="-130" width="20" height="20" as="geometry"/>
                </mxCell>
                <mxCell id="212" value="" style="shape=waypoint;sketch=0;fillStyle=solid;size=6;pointerEvents=1;points=[];fillColor=none;resizable=0;rotatable=0;perimeter=centerPerimeter;snapToPoint=1;strokeWidth=0;" vertex="1" parent="1">
                    <mxGeometry x="110" y="-130" width="20" height="20" as="geometry"/>
                </mxCell>
                <mxCell id="214" value="" style="shape=waypoint;sketch=0;fillStyle=solid;size=6;pointerEvents=1;points=[];fillColor=none;resizable=0;rotatable=0;perimeter=centerPerimeter;snapToPoint=1;strokeWidth=0;" vertex="1" parent="1">
                    <mxGeometry x="120" y="-220" width="20" height="20" as="geometry"/>
                </mxCell>
                <mxCell id="215" value="" style="shape=waypoint;sketch=0;fillStyle=solid;size=6;pointerEvents=1;points=[];fillColor=none;resizable=0;rotatable=0;perimeter=centerPerimeter;snapToPoint=1;strokeWidth=0;" vertex="1" parent="1">
                    <mxGeometry x="110" y="-220" width="20" height="20" as="geometry"/>
                </mxCell>
                <mxCell id="216" value="" style="shape=waypoint;sketch=0;fillStyle=solid;size=6;pointerEvents=1;points=[];fillColor=none;resizable=0;rotatable=0;perimeter=centerPerimeter;snapToPoint=1;strokeWidth=0;" vertex="1" parent="1">
                    <mxGeometry x="100" y="-310" width="20" height="20" as="geometry"/>
                </mxCell>
                <mxCell id="218" value="" style="shape=waypoint;sketch=0;fillStyle=solid;size=6;pointerEvents=1;points=[];fillColor=none;resizable=0;rotatable=0;perimeter=centerPerimeter;snapToPoint=1;strokeWidth=0;" vertex="1" parent="1">
                    <mxGeometry x="110" y="-310" width="20" height="20" as="geometry"/>
                </mxCell>
                <mxCell id="219" value="" style="shape=waypoint;sketch=0;fillStyle=solid;size=6;pointerEvents=1;points=[];fillColor=none;resizable=0;rotatable=0;perimeter=centerPerimeter;snapToPoint=1;strokeWidth=0;" vertex="1" parent="1">
                    <mxGeometry x="100" y="-450" width="20" height="20" as="geometry"/>
                </mxCell>
                <mxCell id="220" value="" style="shape=waypoint;sketch=0;fillStyle=solid;size=6;pointerEvents=1;points=[];fillColor=none;resizable=0;rotatable=0;perimeter=centerPerimeter;snapToPoint=1;strokeWidth=0;" vertex="1" parent="1">
                    <mxGeometry x="120" y="-450" width="20" height="20" as="geometry"/>
                </mxCell>
                <mxCell id="221" value="" style="shape=waypoint;sketch=0;fillStyle=solid;size=6;pointerEvents=1;points=[];fillColor=none;resizable=0;rotatable=0;perimeter=centerPerimeter;snapToPoint=1;strokeWidth=0;" vertex="1" parent="1">
                    <mxGeometry x="110" y="-450" width="20" height="20" as="geometry"/>
                </mxCell>
                <mxCell id="222" value="" style="endArrow=classic;startArrow=classic;html=1;fillColor=#d5e8d4;strokeColor=#82b366;" edge="1" parent="1" source="219" target="36">
                    <mxGeometry width="50" height="50" relative="1" as="geometry">
                        <mxPoint x="280" y="-430" as="sourcePoint"/>
                        <mxPoint x="210" y="-430" as="targetPoint"/>
                    </mxGeometry>
                </mxCell>
                <mxCell id="223" value="" style="endArrow=classic;startArrow=classic;html=1;fillColor=#d5e8d4;strokeColor=#82b366;entryX=0.665;entryY=0.483;entryDx=0;entryDy=0;entryPerimeter=0;" edge="1" parent="1" source="189" target="220">
                    <mxGeometry width="50" height="50" relative="1" as="geometry">
                        <mxPoint x="120" y="-430" as="sourcePoint"/>
                        <mxPoint x="40" y="-430" as="targetPoint"/>
                    </mxGeometry>
                </mxCell>
                <mxCell id="224" value="" style="endArrow=classic;startArrow=classic;html=1;fillColor=#d5e8d4;strokeColor=#82b366;entryX=0.465;entryY=0.652;entryDx=0;entryDy=0;entryPerimeter=0;" edge="1" parent="1" target="204">
                    <mxGeometry width="50" height="50" relative="1" as="geometry">
                        <mxPoint x="30" y="200" as="sourcePoint"/>
                        <mxPoint x="40" y="210" as="targetPoint"/>
                    </mxGeometry>
                </mxCell>
                <mxCell id="225" value="" style="endArrow=classic;startArrow=classic;html=1;fillColor=#d5e8d4;strokeColor=#82b366;entryX=0.397;entryY=0.448;entryDx=0;entryDy=0;entryPerimeter=0;" edge="1" parent="1" source="120" target="204">
                    <mxGeometry width="50" height="50" relative="1" as="geometry">
                        <mxPoint x="40" y="210" as="sourcePoint"/>
                        <mxPoint x="120" y="115" as="targetPoint"/>
                    </mxGeometry>
                </mxCell>
                <mxCell id="226" value="" style="endArrow=classic;startArrow=classic;html=1;fillColor=#d5e8d4;strokeColor=#82b366;entryX=0.662;entryY=0.512;entryDx=0;entryDy=0;entryPerimeter=0;" edge="1" parent="1" source="210" target="120">
                    <mxGeometry width="50" height="50" relative="1" as="geometry">
                        <mxPoint x="40" y="20" as="sourcePoint"/>
                        <mxPoint x="120" y="115" as="targetPoint"/>
                    </mxGeometry>
                </mxCell>
                <mxCell id="227" value="" style="endArrow=classic;startArrow=classic;html=1;fillColor=#d5e8d4;strokeColor=#82b366;entryX=0.42;entryY=0.446;entryDx=0;entryDy=0;entryPerimeter=0;exitX=0.548;exitY=0.327;exitDx=0;exitDy=0;exitPerimeter=0;" edge="1" parent="1" source="19" target="210">
                    <mxGeometry width="50" height="50" relative="1" as="geometry">
                        <mxPoint x="120" y="-110" as="sourcePoint"/>
                        <mxPoint x="40" y="20" as="targetPoint"/>
                    </mxGeometry>
                </mxCell>
                <mxCell id="228" value="" style="endArrow=classic;startArrow=classic;html=1;fillColor=#d5e8d4;strokeColor=#82b366;" edge="1" parent="1" source="19" target="216">
                    <mxGeometry width="50" height="50" relative="1" as="geometry">
                        <mxPoint x="40" y="-200" as="sourcePoint"/>
                        <mxPoint x="120" y="-110" as="targetPoint"/>
                    </mxGeometry>
                </mxCell>
                <mxCell id="229" value="" style="endArrow=classic;startArrow=classic;html=1;fillColor=#d5e8d4;strokeColor=#82b366;entryX=0.5;entryY=0.5;entryDx=0;entryDy=0;entryPerimeter=0;exitX=0.08;exitY=0.525;exitDx=0;exitDy=0;exitPerimeter=0;" edge="1" parent="1" source="216" target="36">
                    <mxGeometry width="50" height="50" relative="1" as="geometry">
                        <mxPoint x="40" y="-200" as="sourcePoint"/>
                        <mxPoint x="120" y="-290" as="targetPoint"/>
                    </mxGeometry>
                </mxCell>
                <mxCell id="230" value="" style="endArrow=classic;startArrow=classic;html=1;fillColor=#d5e8d4;strokeColor=#82b366;" edge="1" parent="1" source="173">
                    <mxGeometry width="50" height="50" relative="1" as="geometry">
                        <mxPoint x="40" y="210" as="sourcePoint"/>
                        <mxPoint x="200" y="100" as="targetPoint"/>
                    </mxGeometry>
                </mxCell>
                <mxCell id="231" value="" style="endArrow=classic;startArrow=classic;html=1;fillColor=#d5e8d4;strokeColor=#82b366;" edge="1" parent="1" source="208" target="184">
                    <mxGeometry width="50" height="50" relative="1" as="geometry">
                        <mxPoint x="140" y="210" as="sourcePoint"/>
                        <mxPoint x="210" y="110" as="targetPoint"/>
                    </mxGeometry>
                </mxCell>
                <mxCell id="232" value="" style="endArrow=classic;startArrow=classic;html=1;fillColor=#d5e8d4;strokeColor=#82b366;" edge="1" parent="1" target="208">
                    <mxGeometry width="50" height="50" relative="1" as="geometry">
                        <mxPoint x="200" y="-120" as="sourcePoint"/>
                        <mxPoint x="210" y="110" as="targetPoint"/>
                    </mxGeometry>
                </mxCell>
                <mxCell id="233" value="" style="endArrow=classic;startArrow=classic;html=1;fillColor=#d5e8d4;strokeColor=#82b366;" edge="1" parent="1" source="214" target="186">
                    <mxGeometry width="50" height="50" relative="1" as="geometry">
                        <mxPoint x="210" y="-110" as="sourcePoint"/>
                        <mxPoint x="140" y="20" as="targetPoint"/>
                    </mxGeometry>
                </mxCell>
                <mxCell id="234" value="" style="endArrow=classic;startArrow=classic;html=1;fillColor=#d5e8d4;strokeColor=#82b366;entryX=0.665;entryY=0.463;entryDx=0;entryDy=0;entryPerimeter=0;" edge="1" parent="1" target="214">
                    <mxGeometry width="50" height="50" relative="1" as="geometry">
                        <mxPoint x="200" y="-300" as="sourcePoint"/>
                        <mxPoint x="210" y="-110" as="targetPoint"/>
                    </mxGeometry>
                </mxCell>
                <mxCell id="235" value="" style="endArrow=classic;startArrow=classic;html=1;fillColor=#d5e8d4;strokeColor=#82b366;exitX=0.584;exitY=0.344;exitDx=0;exitDy=0;exitPerimeter=0;" edge="1" parent="1" source="188" target="220">
                    <mxGeometry width="50" height="50" relative="1" as="geometry">
                        <mxPoint x="210" y="-290" as="sourcePoint"/>
                        <mxPoint x="140" y="-200" as="targetPoint"/>
                    </mxGeometry>
                </mxCell>
                <mxCell id="237" value="" style="endArrow=classic;html=1;dashed=1;" edge="1" parent="1">
                    <mxGeometry width="50" height="50" relative="1" as="geometry">
                        <mxPoint x="199.81" y="180" as="sourcePoint"/>
                        <mxPoint x="199.81" y="130" as="targetPoint"/>
                    </mxGeometry>
                </mxCell>
                <mxCell id="238" value="" style="endArrow=classic;html=1;dashed=1;" edge="1" parent="1">
                    <mxGeometry width="50" height="50" relative="1" as="geometry">
                        <mxPoint x="109.99999999999972" y="180" as="sourcePoint"/>
                        <mxPoint x="109.99999999999972" y="130" as="targetPoint"/>
                    </mxGeometry>
                </mxCell>
                <mxCell id="240" value="s" style="text;html=1;strokeColor=none;fillColor=none;align=center;verticalAlign=middle;whiteSpace=wrap;rounded=0;" vertex="1" parent="1">
                    <mxGeometry x="70" y="140" width="60" height="30" as="geometry"/>
                </mxCell>
                <mxCell id="242" value="s" style="text;html=1;strokeColor=none;fillColor=none;align=center;verticalAlign=middle;whiteSpace=wrap;rounded=0;" vertex="1" parent="1">
                    <mxGeometry x="180" y="140" width="60" height="30" as="geometry"/>
                </mxCell>
                <mxCell id="243" value="" style="endArrow=classic;html=1;dashed=1;" edge="1" parent="1">
                    <mxGeometry width="50" height="50" relative="1" as="geometry">
                        <mxPoint x="109.62" y="50" as="sourcePoint"/>
                        <mxPoint x="109.62" y="-90" as="targetPoint"/>
                    </mxGeometry>
                </mxCell>
                <mxCell id="244" value="2*s" style="text;html=1;strokeColor=none;fillColor=none;align=center;verticalAlign=middle;whiteSpace=wrap;rounded=0;" vertex="1" parent="1">
                    <mxGeometry x="70" y="-20" width="60" height="30" as="geometry"/>
                </mxCell>
                <mxCell id="245" value="2*s" style="text;html=1;strokeColor=none;fillColor=none;align=center;verticalAlign=middle;whiteSpace=wrap;rounded=0;" vertex="1" parent="1">
                    <mxGeometry x="-10" y="-110" width="60" height="30" as="geometry"/>
                </mxCell>
                <mxCell id="247" value="" style="endArrow=classic;html=1;dashed=1;" edge="1" parent="1">
                    <mxGeometry width="50" height="50" relative="1" as="geometry">
                        <mxPoint x="109" y="-155" as="sourcePoint"/>
                        <mxPoint x="110" y="-285" as="targetPoint"/>
                    </mxGeometry>
                </mxCell>
                <mxCell id="248" value="2*s" style="text;html=1;strokeColor=none;fillColor=none;align=center;verticalAlign=middle;whiteSpace=wrap;rounded=0;" vertex="1" parent="1">
                    <mxGeometry x="70" y="-230" width="60" height="30" as="geometry"/>
                </mxCell>
                <mxCell id="249" value="2*s" style="text;html=1;strokeColor=none;fillColor=none;align=center;verticalAlign=middle;whiteSpace=wrap;rounded=0;" vertex="1" parent="1">
                    <mxGeometry x="-70" y="-220" width="60" height="30" as="geometry"/>
                </mxCell>
                <mxCell id="250" value="" style="endArrow=classic;html=1;dashed=1;" edge="1" parent="1">
                    <mxGeometry width="50" height="50" relative="1" as="geometry">
                        <mxPoint x="29.5" y="-270" as="sourcePoint"/>
                        <mxPoint x="30.5" y="-400" as="targetPoint"/>
                    </mxGeometry>
                </mxCell>
                <mxCell id="251" value="2*s" style="text;html=1;strokeColor=none;fillColor=none;align=center;verticalAlign=middle;whiteSpace=wrap;rounded=0;" vertex="1" parent="1">
                    <mxGeometry x="-10" y="-330" width="60" height="30" as="geometry"/>
                </mxCell>
                <mxCell id="252" value="" style="endArrow=classic;html=1;dashed=1;" edge="1" parent="1">
                    <mxGeometry width="50" height="50" relative="1" as="geometry">
                        <mxPoint x="269" y="155" as="sourcePoint"/>
                        <mxPoint x="270" y="25" as="targetPoint"/>
                    </mxGeometry>
                </mxCell>
                <mxCell id="253" value="2*s" style="text;html=1;strokeColor=none;fillColor=none;align=center;verticalAlign=middle;whiteSpace=wrap;rounded=0;" vertex="1" parent="1">
                    <mxGeometry x="250" y="80" width="60" height="30" as="geometry"/>
                </mxCell>
                <mxCell id="254" value="" style="endArrow=classic;html=1;dashed=1;" edge="1" parent="1">
                    <mxGeometry width="50" height="50" relative="1" as="geometry">
                        <mxPoint x="199.8099999999999" y="50" as="sourcePoint"/>
                        <mxPoint x="199.8099999999999" y="-90" as="targetPoint"/>
                    </mxGeometry>
                </mxCell>
                <mxCell id="255" value="2*s" style="text;html=1;strokeColor=none;fillColor=none;align=center;verticalAlign=middle;whiteSpace=wrap;rounded=0;" vertex="1" parent="1">
                    <mxGeometry x="180" y="-20" width="60" height="30" as="geometry"/>
                </mxCell>
                <mxCell id="256" value="" style="endArrow=classic;html=1;dashed=1;" edge="1" parent="1">
                    <mxGeometry width="50" height="50" relative="1" as="geometry">
                        <mxPoint x="269.6199999999997" y="-40" as="sourcePoint"/>
                        <mxPoint x="269.6199999999997" y="-180" as="targetPoint"/>
                    </mxGeometry>
                </mxCell>
                <mxCell id="257" value="" style="endArrow=classic;html=1;dashed=1;" edge="1" parent="1">
                    <mxGeometry width="50" height="50" relative="1" as="geometry">
                        <mxPoint x="199.80999999999943" y="-140" as="sourcePoint"/>
                        <mxPoint x="199.80999999999943" y="-280" as="targetPoint"/>
                    </mxGeometry>
                </mxCell>
                <mxCell id="258" value="" style="endArrow=classic;html=1;dashed=1;" edge="1" parent="1">
                    <mxGeometry width="50" height="50" relative="1" as="geometry">
                        <mxPoint x="269.9999999999995" y="-260" as="sourcePoint"/>
                        <mxPoint x="269.9999999999995" y="-400" as="targetPoint"/>
                    </mxGeometry>
                </mxCell>
                <mxCell id="259" value="" style="endArrow=classic;html=1;dashed=1;" edge="1" parent="1">
                    <mxGeometry width="50" height="50" relative="1" as="geometry">
                        <mxPoint x="129.61999999999978" y="-270" as="sourcePoint"/>
                        <mxPoint x="129.61999999999978" y="-410" as="targetPoint"/>
                    </mxGeometry>
                </mxCell>
                <mxCell id="260" value="" style="endArrow=classic;html=1;dashed=1;" edge="1" parent="1">
                    <mxGeometry width="50" height="50" relative="1" as="geometry">
                        <mxPoint x="129.9999999999999" y="-30" as="sourcePoint"/>
                        <mxPoint x="129.9999999999999" y="-170" as="targetPoint"/>
                    </mxGeometry>
                </mxCell>
                <mxCell id="261" value="" style="endArrow=classic;html=1;dashed=1;" edge="1" parent="1">
                    <mxGeometry width="50" height="50" relative="1" as="geometry">
                        <mxPoint x="133" y="175" as="sourcePoint"/>
                        <mxPoint x="133" y="35" as="targetPoint"/>
                    </mxGeometry>
                </mxCell>
                <mxCell id="262" value="2*s" style="text;html=1;strokeColor=none;fillColor=none;align=center;verticalAlign=middle;whiteSpace=wrap;rounded=0;" vertex="1" parent="1">
                    <mxGeometry x="114" y="95" width="60" height="30" as="geometry"/>
                </mxCell>
                <mxCell id="265" value="s" style="text;html=1;strokeColor=none;fillColor=none;align=center;verticalAlign=middle;whiteSpace=wrap;rounded=0;" vertex="1" parent="1">
                    <mxGeometry x="-70" y="-390" width="60" height="30" as="geometry"/>
                </mxCell>
                <mxCell id="266" value="2*s" style="text;html=1;strokeColor=none;fillColor=none;align=center;verticalAlign=middle;whiteSpace=wrap;rounded=0;" vertex="1" parent="1">
                    <mxGeometry x="110" y="-360" width="60" height="30" as="geometry"/>
                </mxCell>
                <mxCell id="267" value="" style="endArrow=classic;html=1;dashed=1;" edge="1" parent="1">
                    <mxGeometry width="50" height="50" relative="1" as="geometry">
                        <mxPoint x="109.62" y="-350" as="sourcePoint"/>
                        <mxPoint x="109.62" y="-400" as="targetPoint"/>
                    </mxGeometry>
                </mxCell>
                <mxCell id="268" value="s" style="text;html=1;strokeColor=none;fillColor=none;align=center;verticalAlign=middle;whiteSpace=wrap;rounded=0;" vertex="1" parent="1">
                    <mxGeometry x="70" y="-380" width="60" height="30" as="geometry"/>
                </mxCell>
                <mxCell id="269" value="2*s" style="text;html=1;strokeColor=none;fillColor=none;align=center;verticalAlign=middle;whiteSpace=wrap;rounded=0;" vertex="1" parent="1">
                    <mxGeometry x="250" y="-120" width="60" height="30" as="geometry"/>
                </mxCell>
                <mxCell id="270" value="2*s" style="text;html=1;strokeColor=none;fillColor=none;align=center;verticalAlign=middle;whiteSpace=wrap;rounded=0;" vertex="1" parent="1">
                    <mxGeometry x="250" y="-340" width="60" height="30" as="geometry"/>
                </mxCell>
                <mxCell id="271" value="2*s" style="text;html=1;strokeColor=none;fillColor=none;align=center;verticalAlign=middle;whiteSpace=wrap;rounded=0;" vertex="1" parent="1">
                    <mxGeometry x="180" y="-220" width="60" height="30" as="geometry"/>
                </mxCell>
                <mxCell id="272" value="2*s" style="text;html=1;strokeColor=none;fillColor=none;align=center;verticalAlign=middle;whiteSpace=wrap;rounded=0;" vertex="1" parent="1">
                    <mxGeometry x="110" y="-120" width="60" height="30" as="geometry"/>
                </mxCell>
                <mxCell id="273" value="" style="endArrow=classic;html=1;dashed=1;" edge="1" parent="1">
                    <mxGeometry width="50" height="50" relative="1" as="geometry">
                        <mxPoint x="199.81" y="-360" as="sourcePoint"/>
                        <mxPoint x="199.81" y="-410" as="targetPoint"/>
                    </mxGeometry>
                </mxCell>
                <mxCell id="274" value="s" style="text;html=1;strokeColor=none;fillColor=none;align=center;verticalAlign=middle;whiteSpace=wrap;rounded=0;" vertex="1" parent="1">
                    <mxGeometry x="174" y="-390" width="60" height="30" as="geometry"/>
                </mxCell>
                <mxCell id="277" value="d" style="text;html=1;strokeColor=none;fillColor=none;align=center;verticalAlign=middle;whiteSpace=wrap;rounded=0;" vertex="1" parent="1">
                    <mxGeometry x="40" y="-440" width="60" height="30" as="geometry"/>
                </mxCell>
                <mxCell id="278" value="d" style="text;html=1;strokeColor=none;fillColor=none;align=center;verticalAlign=middle;whiteSpace=wrap;rounded=0;" vertex="1" parent="1">
                    <mxGeometry x="130" y="-440" width="60" height="30" as="geometry"/>
                </mxCell>
                <mxCell id="279" value="d" style="text;html=1;strokeColor=none;fillColor=none;align=center;verticalAlign=middle;whiteSpace=wrap;rounded=0;" vertex="1" parent="1">
                    <mxGeometry x="200" y="-440" width="60" height="30" as="geometry"/>
                </mxCell>
            </root>
        </mxGraphModel>
    </diagram>
</mxfile>